<?xml version="1.0" encoding="UTF-8"?>
<svg width="95px" height="87px" viewBox="0 0 95 87" version="1.1" xmlns="http://www.w3.org/2000/svg" xmlns:xlink="http://www.w3.org/1999/xlink">
    <!-- Generator: Sketch 42 (36781) - http://www.bohemiancoding.com/sketch -->
    <title>logo_original</title>
    <desc>Created with Sketch.</desc>
    <defs>
        <linearGradient x1="49.3667877%" y1="55.2329381%" x2="50.8303085%" y2="-9.04123847%" id="linearGradient-1">
            <stop stop-color="#BE5554" offset="0%"></stop>
            <stop stop-color="#F37160" offset="40.45%"></stop>
        </linearGradient>
    </defs>
    <g id="Page-1" stroke="none" stroke-width="1" fill="none" fill-rule="evenodd">
        <g id="Artboard" transform="translate(-13.000000, 0.000000)" fill-rule="nonzero">
            <g id="logo_original" transform="translate(13.000000, 0.000000)">
                <g id="Group">
                    <g transform="translate(0.000000, 76.884211)" id="Shape" fill="#BE5554">
                        <path d="M1.75242718,0.926315789 L1.75242718,6.20631579 C1.75242718,8.15157895 2.58252427,8.98526316 3.7815534,8.98526316 C5.07281553,8.98526316 5.90291262,8.15157895 5.90291262,6.20631579 L5.90291262,0.926315789 L7.00970874,0.926315789 L7.00970874,6.11368421 C7.00970874,8.8 5.62621359,9.91157895 3.68932039,9.91157895 C1.84466019,9.91157895 0.553398058,8.89263158 0.553398058,6.11368421 L0.553398058,0.926315789 L1.75242718,0.926315789 Z"></path>
                        <path d="M9.22330097,9.72631579 L9.22330097,0.926315789 L10.5145631,0.926315789 L13.2815534,5.37263158 C13.9271845,6.39157895 14.4805825,7.31789474 14.8495146,8.24421053 L14.8495146,8.24421053 C14.7572816,7.04 14.7572816,6.02105263 14.7572816,4.63157895 L14.7572816,0.926315789 L15.8640777,0.926315789 L15.8640777,9.72631579 L14.7572816,9.72631579 L11.9902913,5.28 C11.3446602,4.26105263 10.7912621,3.24210526 10.3300971,2.31578947 L10.3300971,2.31578947 C10.4223301,3.42736842 10.4223301,4.44631579 10.4223301,5.92842105 L10.4223301,9.72631579 L9.22330097,9.72631579 Z"></path>
                        <polygon points="19.092233 0.926315789 19.092233 9.72631579 17.9854369 9.72631579 17.9854369 0.926315789"></polygon>
                        <polygon points="22.8737864 1.85263158 20.1990291 1.85263158 20.1990291 0.926315789 26.7475728 0.926315789 26.7475728 1.85263158 23.9805825 1.85263158 23.9805825 9.72631579 22.8737864 9.72631579"></polygon>
                        <polygon points="32.3737864 5.65052632 28.961165 5.65052632 28.961165 8.8 32.7427184 8.8 32.7427184 9.72631579 27.7621359 9.72631579 27.7621359 0.926315789 32.5582524 0.926315789 32.5582524 1.85263158 28.961165 1.85263158 28.961165 4.63157895 32.3737864 4.63157895 32.3737864 5.65052632"></polygon>
                        <path d="M34.4029126,1.01894737 C35.1407767,0.926315789 35.9708738,0.833684211 36.8009709,0.833684211 C38.461165,0.833684211 39.5679612,1.20421053 40.3980583,1.94526316 C41.2281553,2.68631579 41.6893204,3.70526316 41.6893204,5.09473684 C41.6893204,6.57684211 41.2281553,7.68842105 40.3980583,8.52210526 C39.5679612,9.35578947 38.184466,9.81894737 36.5242718,9.81894737 C35.6941748,9.81894737 35.0485437,9.81894737 34.4029126,9.72631579 L34.4029126,1.01894737 Z M35.5097087,8.89263158 C35.7864078,8.98526316 36.2475728,8.98526316 36.6165049,8.98526316 C39.0145631,8.98526316 40.3980583,7.59578947 40.3980583,5.18736842 C40.3980583,3.05684211 39.1990291,1.76 36.8009709,1.76 C36.2475728,1.76 35.7864078,1.85263158 35.5097087,1.85263158 L35.5097087,8.89263158 L35.5097087,8.89263158 Z"></path>
                        <polygon points="47.223301 1.85263158 44.5485437 1.85263158 44.5485437 0.926315789 51.0970874 0.926315789 51.0970874 1.85263158 48.4223301 1.85263158 48.4223301 9.72631579 47.315534 9.72631579 47.315534 1.85263158"></polygon>
                        <path d="M52.2038835,1.01894737 C52.7572816,0.926315789 53.5873786,0.833684211 54.4174757,0.833684211 C55.6165049,0.833684211 56.4466019,1.11157895 57,1.57473684 C57.461165,1.94526316 57.7378641,2.59368421 57.7378641,3.24210526 C57.7378641,4.35368421 57,5.18736842 56.0776699,5.46526316 L56.0776699,5.46526316 C56.723301,5.74315789 57.184466,6.29894737 57.368932,7.22526316 C57.6456311,8.42947368 57.8300971,9.26315789 58.0145631,9.63368421 L56.815534,9.63368421 C56.631068,9.35578947 56.4466019,8.61473684 56.2621359,7.50315789 C55.9854369,6.29894737 55.5242718,5.83578947 54.5097087,5.74315789 L53.4029126,5.74315789 L53.4029126,9.54105263 L52.2961165,9.54105263 L52.2961165,1.01894737 L52.2038835,1.01894737 Z M53.3106796,5.09473684 L54.5097087,5.09473684 C55.7087379,5.09473684 56.538835,4.44631579 56.538835,3.42736842 C56.538835,2.31578947 55.7087379,1.76 54.5097087,1.76 C53.9563107,1.76 53.5873786,1.85263158 53.4029126,1.85263158 L53.4029126,5.09473684 L53.3106796,5.09473684 Z"></path>
                        <path d="M60.8737864,6.94736842 L59.9514563,9.72631579 L58.7524272,9.72631579 L61.7961165,0.926315789 L63.1796117,0.926315789 L66.223301,9.72631579 L65.0242718,9.72631579 L64.1019417,6.94736842 L60.8737864,6.94736842 Z M63.7330097,6.11368421 L62.9029126,3.61263158 C62.7184466,3.05684211 62.6262136,2.50105263 62.4417476,2.03789474 L62.4417476,2.03789474 C62.3495146,2.59368421 62.1650485,3.05684211 61.9805825,3.61263158 L61.1504854,6.20631579 L63.7330097,6.20631579 L63.7330097,6.11368421 Z"></path>
                        <path d="M67.5145631,1.01894737 C68.2524272,0.926315789 69.0825243,0.833684211 69.9126214,0.833684211 C71.5728155,0.833684211 72.6796117,1.20421053 73.5097087,1.94526316 C74.3398058,2.68631579 74.8009709,3.70526316 74.8009709,5.09473684 C74.8009709,6.57684211 74.3398058,7.68842105 73.5097087,8.52210526 C72.6796117,9.35578947 71.2961165,9.81894737 69.6359223,9.81894737 C68.8058252,9.81894737 68.1601942,9.81894737 67.5145631,9.72631579 L67.5145631,1.01894737 Z M68.7135922,8.89263158 C68.9902913,8.98526316 69.4514563,8.98526316 69.8203883,8.98526316 C72.2184466,8.98526316 73.6019417,7.59578947 73.6019417,5.18736842 C73.6019417,3.05684211 72.4029126,1.76 70.0048544,1.76 C69.4514563,1.76 68.9902913,1.85263158 68.7135922,1.85263158 L68.7135922,8.89263158 L68.7135922,8.89263158 Z"></path>
                        <polygon points="80.9805825 5.65052632 77.5679612 5.65052632 77.5679612 8.8 81.3495146 8.8 81.3495146 9.72631579 76.368932 9.72631579 76.368932 0.926315789 81.1650485 0.926315789 81.1650485 1.85263158 77.5679612 1.85263158 77.5679612 4.63157895 80.9805825 4.63157895"></polygon>
                        <path d="M82.9174757,1.01894737 C83.4708738,0.926315789 84.3009709,0.833684211 85.131068,0.833684211 C86.3300971,0.833684211 87.1601942,1.11157895 87.7135922,1.57473684 C88.1747573,1.94526316 88.4514563,2.59368421 88.4514563,3.24210526 C88.4514563,4.35368421 87.7135922,5.18736842 86.7912621,5.46526316 L86.7912621,5.46526316 C87.4368932,5.74315789 87.8980583,6.29894737 88.0825243,7.22526316 C88.3592233,8.42947368 88.5436893,9.26315789 88.7281553,9.63368421 L87.5291262,9.63368421 C87.3446602,9.35578947 87.1601942,8.61473684 86.9757282,7.50315789 C86.6990291,6.29894737 86.2378641,5.83578947 85.223301,5.74315789 L84.1165049,5.74315789 L84.1165049,9.54105263 L83.0097087,9.54105263 L83.0097087,1.01894737 L82.9174757,1.01894737 Z M84.1165049,5.09473684 L85.315534,5.09473684 C86.5145631,5.09473684 87.3446602,4.44631579 87.3446602,3.42736842 C87.3446602,2.31578947 86.5145631,1.76 85.315534,1.76 C84.7621359,1.76 84.3932039,1.85263158 84.2087379,1.85263158 L84.2087379,5.09473684 L84.1165049,5.09473684 Z"></path>
                        <path d="M89.9271845,8.33684211 C90.4805825,8.61473684 91.1262136,8.89263158 91.9563107,8.89263158 C93.1553398,8.89263158 93.8009709,8.24421053 93.8009709,7.41052632 C93.8009709,6.57684211 93.3398058,6.11368421 92.1407767,5.65052632 C90.6650485,5.18736842 89.8349515,4.35368421 89.8349515,3.14947368 C89.8349515,1.76 90.9417476,0.741052632 92.6941748,0.741052632 C93.6165049,0.741052632 94.2621359,0.926315789 94.631068,1.20421053 L94.3543689,2.13052632 C94.0776699,1.94526316 93.5242718,1.66736842 92.6941748,1.66736842 C91.4951456,1.66736842 91.0339806,2.40842105 91.0339806,2.96421053 C91.0339806,3.79789474 91.5873786,4.16842105 92.7864078,4.63157895 C94.2621359,5.18736842 95,5.92842105 95,7.22526316 C95,8.61473684 93.9854369,9.81894737 91.9563107,9.81894737 C91.1262136,9.81894737 90.2038835,9.54105263 89.7427184,9.26315789 L89.9271845,8.33684211 Z"></path>
                    </g>
                    <path d="M22.4126214,0.833684211 L22.4126214,0.833684211 L22.4126214,0.833684211 L22.4126214,41.5915789 C22.4126214,63.1747368 33.0194175,71.1410526 47.131068,71.1410526 C62.0728155,71.1410526 73.2330097,62.5263158 73.2330097,41.2210526 L73.2330097,8.42947368 L73.2330097,0.833684211 L73.2330097,0.833684211 L22.4126214,0.833684211 L22.4126214,0.833684211 Z M31.3592233,41.8694737 L31.3592233,8.42947368 L43.1650485,8.42947368 L43.1650485,63.36 C36.1553398,61.5073684 31.3592233,54.8378947 31.3592233,41.8694737 Z M64.1941748,41.8694737 C64.1941748,54.56 59.5825243,61.4147368 52.1116505,63.2673684 L52.1116505,8.42947368 L64.1941748,8.42947368 L64.1941748,41.8694737 Z" id="Shape" fill="url(#linearGradient-1)"></path>
                </g>
            </g>
        </g>
    </g>
</svg>