<svg xmlns="http://www.w3.org/2000/svg" x="0px" y="0px"
     width="80" height="80"
     viewBox="0 0 40 40"
     style="enable-background:new 0 0 40 40;;fill:#000000;"><g>	<path style="fill:#8BB7F0;" d="M16.454,34.5c-1.532-0.013-2.845-1.341-2.931-2.972c-0.634-9.628-7.268-14.15-9.287-15.307   C3.125,15.583,2.5,14.596,2.5,13.5c0-1.654,1.346-3,3-3c0.487,0,0.954,0.115,1.387,0.342l0.136,0.071   c2.796,1.594,11.585,7.589,12.459,20.209L16.454,34.5z"></path>	<g>		<path style="fill:#4E7AB5;" d="M5.5,11c0.406,0,0.794,0.096,1.156,0.285l0.106,0.055c2.708,1.541,11.265,7.358,12.206,19.607    l-2.727,3.041c-1.178-0.126-2.152-1.194-2.221-2.499c-0.649-9.871-7.463-14.514-9.557-15.714C4.024,15.522,3,14.795,3,13.5    C3,12.122,4.122,11,5.5,11 M5.5,10C3.567,10,2,11.567,2,13.5c0,1.382,0.843,2.498,1.966,3.142    c0.754,0.433,8.387,4.721,9.057,14.912c0.101,1.9,1.643,3.446,3.453,3.446c0.101,0,0.201,0,0.201,0l3.319-3.701    C19.09,16.696,7.626,10.694,7.123,10.394l-0.004,0.005C6.635,10.145,6.085,10,5.5,10L5.5,10z"></path>	</g></g><g>	<path style="fill:#F78F8F;" d="M16.435,34.5c-0.517,0-1.106-0.192-1.577-0.513c-0.653-0.417-1.112-1.095-1.273-1.869   c-0.164-0.789-0.012-1.583,0.428-2.238c6.104-9.621-0.042-19.774-0.109-19.867c-0.814-1.42-0.375-3.23,1.028-4.073   c0.479-0.288,1.013-0.44,1.544-0.44c1.014,0,1.934,0.546,2.46,1.46l0.066,0.127c1.753,3.27,6.932,14.812-0.058,26.049   C18.355,33.996,17.436,34.5,16.435,34.5z"></path>	<path style="fill:#C74343;" d="M16.476,6L16.476,6c0.826,0,1.577,0.444,2.015,1.19c0.017,0.033,0.041,0.077,0.071,0.133   c1.722,3.21,6.807,14.538-0.018,25.512C18.037,33.576,17.268,34,16.435,34c-0.419,0-0.904-0.159-1.32-0.443   c-0.527-0.337-0.906-0.898-1.04-1.541c-0.136-0.656-0.011-1.315,0.368-1.879c5.943-9.368,0.549-19.256-0.079-20.325l0.003-0.002   c-0.719-1.249-0.365-2.728,0.822-3.442C15.591,6.127,16.035,6,16.476,6 M16.476,5c-0.607,0-1.228,0.166-1.802,0.512   c-1.663,1-2.152,3.099-1.174,4.798c0.293,0.4,5.869,10.196,0.098,19.292c-1.076,1.599-0.587,3.799,0.978,4.798   c0.587,0.4,1.272,0.6,1.858,0.6c1.174,0,2.25-0.6,2.934-1.599c8.021-12.895,0.293-26.09,0-26.69C18.729,5.598,17.627,5,16.476,5   L16.476,5z"></path></g><g>	<path style="fill:#FFEEA3;" d="M30.377,38.492C28.717,38.357,27.5,36.588,27.5,35c0.309-16.104-12.493-23.939-12.622-24.016   c-0.653-0.407-1.117-1.066-1.298-1.853c-0.182-0.789-0.054-1.588,0.361-2.25C14.476,6.029,15.459,5.5,16.508,5.5   c0.56,0,1.101,0.152,1.563,0.44c0.174,0.1,15.717,9.833,15.424,29.354L30.377,38.492z"></path>	<path style="fill:#BA9B48;" d="M16.508,6L16.508,6c0.467,0,0.916,0.126,1.333,0.385c0.155,0.088,15.339,9.607,15.158,28.704   l-2.804,2.875C28.915,37.719,28,36.291,28,35.019c0.315-16.399-12.327-24.143-12.85-24.455c-0.547-0.341-0.932-0.89-1.084-1.546   c-0.152-0.658-0.046-1.323,0.298-1.872C14.809,6.439,15.63,6,16.508,6 M16.507,5c-1.175,0-2.337,0.575-2.99,1.615   c-1.004,1.599-0.502,3.798,1.104,4.798C15.124,11.713,27.301,19.307,27,35c0,1.999,1.573,4,3.58,4l3.412-3.498   C34.394,15.811,19.038,5.915,18.335,5.516C17.774,5.166,17.139,5,16.507,5L16.507,5z"></path></g><g>	<path style="fill:#BAE0BD;" d="M30.494,38.5c-0.456,0-0.968-0.146-1.567-0.446c-1.42-0.839-1.857-2.604-0.986-4.089   c6.928-11.848,1.816-24.251,0.085-27.77l-0.016-0.033V6.149L27.952,6.04c-0.797-1.51-0.322-3.283,1.104-4.125   C29.517,1.644,30.033,1.5,30.55,1.5c1.062,0,2.032,0.574,2.596,1.534c0.095,0.167,9.68,17.373,0,33.917   C32.582,37.921,31.59,38.5,30.494,38.5z"></path>	<path style="fill:#5E9C76;" d="M30.55,2L30.55,2c0.883,0,1.692,0.481,2.158,1.276c0.096,0.169,9.54,17.127,0.004,33.425   C32.24,37.514,31.41,38,30.493,38c-0.369,0-0.798-0.123-1.311-0.377c-1.183-0.717-1.533-2.175-0.811-3.406   c7.006-11.983,1.929-24.5,0.137-28.17V6.026l-0.116-0.219c-0.67-1.269-0.276-2.757,0.917-3.461C29.699,2.116,30.116,2,30.55,2    M30.55,1c-0.59,0-1.191,0.156-1.748,0.484c-1.691,0.998-2.189,3.093-1.293,4.789c0,0.1,7.759,14.168,0,27.438   c-0.995,1.696-0.497,3.791,1.194,4.789C29.3,38.8,29.897,39,30.493,39c1.194,0,2.388-0.599,3.084-1.796   c9.749-16.663,0.398-33.724,0-34.423C32.91,1.644,31.751,1,30.55,1L30.55,1z"></path></g></svg>